<?xml version="1.0" standalone="no"?>
<!DOCTYPE svg PUBLIC "-//W3C//DTD SVG 20010904//EN"
 "http://www.w3.org/TR/2001/REC-SVG-20010904/DTD/svg10.dtd">
<svg version="1.0" xmlns="http://www.w3.org/2000/svg"
 width="500.000000pt" height="500.000000pt" viewBox="0 0 500.000000 500.000000"
 preserveAspectRatio="xMidYMid meet">
<metadata>
Created by potrace 1.11, written by Peter Selinger 2001-2013
</metadata>
<g transform="translate(0.000000,500.000000) scale(0.100000,-0.100000)"
fill="#000000" stroke="none">
<path d="M2338 4625 c-2 -2 -34 -6 -71 -10 -37 -3 -76 -8 -86 -10 -22 -4 -88
-15 -116 -20 -11 -1 -27 -5 -35 -9 -8 -3 -26 -8 -40 -10 -84 -17 -233 -65
-330 -108 -61 -26 -134 -62 -140 -68 -3 -3 -11 -6 -19 -8 -8 -2 -27 -12 -42
-23 -15 -10 -30 -19 -33 -19 -8 0 -176 -112 -231 -154 -79 -62 -183 -155 -239
-215 -17 -18 -46 -49 -64 -68 -17 -18 -32 -37 -32 -42 0 -5 -3 -11 -8 -13 -21
-9 -147 -186 -208 -293 -42 -75 -123 -243 -130 -270 -1 -5 -8 -23 -15 -40 -15
-36 -14 -32 -24 -70 -4 -16 -11 -35 -16 -40 -4 -6 -10 -22 -13 -35 -10 -50
-15 -72 -21 -90 -3 -10 -8 -29 -10 -42 -3 -13 -7 -34 -10 -48 -3 -14 -7 -38
-10 -55 -2 -16 -7 -43 -10 -60 -21 -120 -27 -444 -10 -550 2 -16 7 -55 11 -85
3 -30 7 -57 9 -61 2 -3 7 -19 9 -35 12 -61 16 -80 42 -168 30 -108 104 -300
116 -304 4 -2 8 -9 8 -17 0 -36 158 -293 258 -420 45 -58 266 -283 314 -320
256 -201 521 -336 804 -410 122 -32 128 -34 227 -49 164 -26 505 -27 633 -2
12 2 39 7 60 10 22 4 46 8 54 11 8 2 26 6 40 9 148 27 411 127 570 216 94 53
230 143 230 153 0 4 5 7 11 7 24 0 274 234 359 335 196 234 347 527 425 821
36 135 36 136 64 343 9 69 7 350 -3 441 -12 110 -55 318 -79 380 -3 8 -13 39
-22 67 -9 29 -21 55 -26 59 -5 3 -7 9 -4 14 7 12 -82 208 -141 305 -13 22 -26
48 -30 58 -3 9 -10 17 -15 17 -5 0 -9 6 -9 13 0 7 -8 22 -18 33 -10 10 -21 27
-25 37 -3 9 -11 17 -17 17 -5 0 -10 5 -10 11 0 39 -279 332 -421 442 -48 37
-91 67 -97 67 -6 0 -12 4 -14 9 -8 23 -357 211 -391 211 -7 0 -17 4 -22 8 -6
5 -41 18 -80 31 -38 13 -77 25 -85 28 -8 4 -19 7 -25 8 -5 2 -30 8 -55 15 -25
7 -54 14 -65 16 -11 2 -45 9 -75 15 -89 17 -92 17 -150 24 -55 7 -396 15 -402
10z m373 -861 c138 -19 259 -50 344 -89 16 -8 33 -11 37 -9 4 3 8 0 8 -6 0 -6
8 -13 18 -17 23 -8 105 -64 114 -77 4 -6 8 -8 8 -4 0 12 84 -77 111 -118 50
-76 59 -94 84 -168 49 -145 52 -334 9 -485 -18 -63 -76 -185 -99 -208 -8 -8
-15 -18 -15 -22 0 -4 -26 -35 -59 -68 -66 -68 -153 -131 -240 -172 l-59 -27
42 -27 c55 -34 123 -108 165 -177 19 -30 39 -58 45 -62 6 -4 8 -8 4 -8 -5 0
145 -254 169 -285 5 -5 17 -27 27 -47 11 -20 24 -34 29 -31 6 3 7 2 4 -4 -3
-5 14 -41 38 -79 25 -38 48 -77 51 -86 3 -10 10 -18 15 -18 5 0 9 -5 9 -10 0
-6 12 -29 27 -53 15 -23 33 -51 39 -62 10 -18 38 -65 63 -106 9 -15 -17 -16
-292 -14 -297 2 -329 4 -343 18 -4 4 -13 7 -21 7 -18 0 -77 58 -97 95 -9 17
-21 37 -26 45 -12 19 -106 183 -132 230 -11 19 -25 44 -31 55 -7 11 -39 68
-72 125 -32 58 -63 108 -68 111 -5 3 -8 9 -7 13 4 17 -108 191 -137 213 -29
22 -45 25 -148 30 l-115 5 1 -466 c0 -256 -2 -470 -5 -474 -3 -5 -137 -9 -298
-8 l-293 1 -1 1270 c-1 699 1 1274 3 1278 8 14 987 7 1094 -9z"/>
<path d="M2210 2956 l1 -376 177 4 c120 3 196 9 235 20 69 19 171 81 161 98
-4 6 -3 8 4 4 11 -7 44 32 37 45 -3 4 2 9 10 12 24 10 53 124 53 212 0 181
-93 297 -275 341 -15 4 -112 9 -216 11 l-187 5 0 -376z"/>
</g>
</svg>
